<svg width="271" height="71" viewBox="0 0 271 71" fill="none" xmlns="http://www.w3.org/2000/svg">
<circle cx="26" cy="32.2822" r="26" fill="#FDB235"/>
<g clip-path="url(#clip0_1648_2613)">
<mask id="mask0_1648_2613" style="mask-type:luminance" maskUnits="userSpaceOnUse" x="4" y="12" width="44" height="44">
<path d="M4.41943 12.1693H47.5892V55.3391H4.41943V12.1693Z" fill="white"/>
</mask>
<g mask="url(#mask0_1648_2613)">
<path d="M37.8963 38.5515L43.4123 33.3351C47.2853 29.4622 47.2853 23.1829 43.4123 19.3099C39.5393 15.437 33.2601 15.437 29.3871 19.3099L21.9327 26.5422C20.6177 27.8147 20.6004 29.9177 21.8943 31.2116C23.1732 32.4906 25.2469 32.4906 26.5258 31.2116L28.5411 29.1963L38.1968 38.852C39.2481 39.9032 39.2481 41.6076 38.1968 42.6588C37.1457 43.7101 35.4413 43.7101 34.3901 42.6588L30.8154 39.0842" stroke="#234540" stroke-width="2.5524" stroke-miterlimit="10" stroke-linecap="round" stroke-linejoin="round"/>
<path d="M27.8027 44.252L30.1589 46.6082C31.2878 47.737 33.1178 47.737 34.2467 46.6082C35.3754 45.4795 35.3754 43.6494 34.2467 42.5206L31.878 40.1519" stroke="#234540" stroke-width="2.5524" stroke-miterlimit="10" stroke-linecap="round" stroke-linejoin="round"/>
<path d="M26.5354 22.0441L23.5097 19.0184C19.4358 14.9444 12.8306 14.9444 8.75672 19.0184C4.68266 23.0924 4.68266 29.6975 8.75672 33.7714L9.86902 34.8838" stroke="#234540" stroke-width="2.5524" stroke-miterlimit="10" stroke-linecap="round" stroke-linejoin="round"/>
<path d="M16.9302 48.7667L16.9674 48.804C18.1165 49.953 19.9794 49.953 21.1284 48.804L24.9246 45.0078C26.0736 43.8588 26.0736 41.9959 24.9246 40.8469L24.8872 40.8095C23.7383 39.6606 21.8753 39.6606 20.7263 40.8095L16.9302 44.6058C15.7811 45.7548 15.7811 47.6177 16.9302 48.7667Z" stroke="#234540" stroke-width="2.5524" stroke-miterlimit="10" stroke-linecap="round" stroke-linejoin="round"/>
<path d="M12.7309 44.5682L12.7682 44.6056C13.9173 45.7545 15.7801 45.7545 16.9292 44.6056L20.7254 40.8093C21.8743 39.6603 21.8743 37.7975 20.7254 36.6484L20.688 36.611C19.539 35.4621 17.6761 35.4621 16.5271 36.611L12.7309 40.4073C11.5819 41.5563 11.5819 43.4192 12.7309 44.5682Z" stroke="#234540" stroke-width="2.5524" stroke-miterlimit="10" stroke-linecap="round" stroke-linejoin="round"/>
<path d="M8.53953 40.3709L8.5768 40.4083C9.72586 41.5573 11.5887 41.5573 12.7378 40.4083L16.534 36.612C17.6829 35.4631 17.6829 33.6002 16.534 32.4511L16.4966 32.4138C15.3476 31.2648 13.4847 31.2648 12.3357 32.4138L8.53953 36.21C7.39047 37.359 7.39047 39.222 8.53953 40.3709Z" stroke="#234540" stroke-width="2.5524" stroke-miterlimit="10" stroke-linecap="round" stroke-linejoin="round"/>
<path d="M22.6631 47.2872L26.0713 50.6954C27.2001 51.8242 29.0302 51.8242 30.159 50.6954C31.2878 49.5666 31.2878 47.7365 30.159 46.6076L26.7717 43.2204" stroke="#234540" stroke-width="2.5524" stroke-miterlimit="10" stroke-linecap="round" stroke-linejoin="round"/>
</g>
</g>
<path d="M88.921 56.7825V38.5665C88.921 37.0705 88.481 35.9045 87.601 35.0685C86.721 34.1885 85.599 33.7485 84.235 33.7485C83.311 33.7485 82.475 33.9465 81.727 34.3425C81.023 34.7385 80.473 35.2885 80.077 35.9925C79.681 36.6965 79.483 37.5545 79.483 38.5665L74.995 36.4545C74.995 33.8585 75.523 31.6365 76.579 29.7885C77.679 27.8965 79.175 26.4445 81.067 25.4325C82.959 24.3765 85.159 23.8485 87.667 23.8485C90.263 23.8485 92.507 24.3765 94.399 25.4325C96.335 26.4445 97.809 27.8525 98.821 29.6565C99.877 31.4605 100.405 33.5505 100.405 35.9265V56.7825H88.921ZM67.999 56.7825V8.66846H79.483V56.7825H67.999ZM121.724 57.5085C118.248 57.5085 115.146 56.7825 112.418 55.3305C109.734 53.8345 107.6 51.8105 106.016 49.2585C104.432 46.6625 103.64 43.7585 103.64 40.5465C103.64 37.3345 104.41 34.4745 105.95 31.9665C107.534 29.4145 109.69 27.4125 112.418 25.9605C115.146 24.4645 118.226 23.7165 121.658 23.7165C125.09 23.7165 128.148 24.4645 130.832 25.9605C133.56 27.4125 135.716 29.4145 137.3 31.9665C138.884 34.4745 139.676 37.3345 139.676 40.5465C139.676 43.7585 138.884 46.6625 137.3 49.2585C135.76 51.8105 133.626 53.8345 130.898 55.3305C128.214 56.7825 125.156 57.5085 121.724 57.5085ZM121.658 47.2785C122.934 47.2785 124.034 47.0145 124.958 46.4865C125.926 45.9145 126.674 45.1225 127.202 44.1105C127.73 43.0985 127.994 41.9325 127.994 40.6125C127.994 39.2925 127.708 38.1485 127.136 37.1805C126.608 36.1685 125.882 35.3985 124.958 34.8705C124.034 34.2985 122.934 34.0125 121.658 34.0125C120.426 34.0125 119.326 34.2985 118.358 34.8705C117.39 35.4425 116.642 36.2345 116.114 37.2465C115.586 38.2145 115.322 39.3585 115.322 40.6785C115.322 41.9545 115.586 43.0985 116.114 44.1105C116.642 45.1225 117.39 45.9145 118.358 46.4865C119.326 47.0145 120.426 47.2785 121.658 47.2785ZM162.778 57.4425C160.71 57.4425 158.796 57.0685 157.036 56.3205C155.276 55.5725 153.824 54.5605 152.68 53.2845C151.536 51.9645 150.832 50.4465 150.568 48.7305V33.0225C150.832 31.3065 151.536 29.7665 152.68 28.4025C153.868 26.9945 155.32 25.8945 157.036 25.1025C158.796 24.2665 160.71 23.8485 162.778 23.8485C165.902 23.8485 168.652 24.5745 171.028 26.0265C173.404 27.4345 175.252 29.4145 176.572 31.9665C177.936 34.5185 178.618 37.4225 178.618 40.6785C178.618 43.8905 177.936 46.7725 176.572 49.3245C175.252 51.8325 173.404 53.8125 171.028 55.2645C168.652 56.7165 165.902 57.4425 162.778 57.4425ZM160.6 47.2125C161.876 47.2125 162.998 46.9265 163.966 46.3545C164.934 45.7825 165.682 45.0125 166.21 44.0445C166.738 43.0325 167.002 41.8885 167.002 40.6125C167.002 39.3365 166.738 38.2145 166.21 37.2465C165.682 36.2785 164.934 35.5085 163.966 34.9365C162.998 34.3645 161.898 34.0785 160.666 34.0785C159.478 34.0785 158.4 34.3645 157.432 34.9365C156.464 35.4645 155.716 36.2345 155.188 37.2465C154.66 38.2145 154.396 39.3365 154.396 40.6125C154.396 41.8885 154.66 43.0325 155.188 44.0445C155.716 45.0125 156.442 45.7825 157.366 46.3545C158.334 46.9265 159.412 47.2125 160.6 47.2125ZM143.572 70.4445V24.5085H155.056V32.6265L153.142 40.4145L154.792 48.2685V70.4445H143.572ZM198.981 57.5085C195.373 57.5085 192.183 56.8045 189.411 55.3965C186.639 53.9445 184.461 51.9425 182.877 49.3905C181.293 46.8385 180.501 43.9125 180.501 40.6125C180.501 37.3565 181.271 34.4745 182.811 31.9665C184.351 29.4145 186.441 27.4125 189.081 25.9605C191.765 24.4645 194.779 23.7165 198.123 23.7165C201.379 23.7165 204.261 24.4205 206.769 25.8285C209.321 27.1925 211.301 29.1065 212.709 31.5705C214.161 33.9905 214.887 36.7625 214.887 39.8865C214.887 40.5465 214.843 41.2285 214.755 41.9325C214.711 42.5925 214.579 43.3625 214.359 44.2425L185.913 44.3745V36.9825L209.805 36.7845L204.657 40.0185C204.613 38.2145 204.349 36.7405 203.865 35.5965C203.381 34.4085 202.677 33.5065 201.753 32.8905C200.829 32.2745 199.663 31.9665 198.255 31.9665C196.803 31.9665 195.549 32.3185 194.493 33.0225C193.437 33.7265 192.623 34.7165 192.051 35.9925C191.479 37.2685 191.193 38.8085 191.193 40.6125C191.193 42.4605 191.501 44.0445 192.117 45.3645C192.733 46.6405 193.613 47.6085 194.757 48.2685C195.901 48.9285 197.309 49.2585 198.981 49.2585C200.565 49.2585 201.951 48.9945 203.139 48.4665C204.371 47.9385 205.471 47.1245 206.439 46.0245L212.445 52.0305C210.861 53.8345 208.925 55.1985 206.637 56.1225C204.393 57.0465 201.841 57.5085 198.981 57.5085Z" fill="white"/>
<path fill-rule="evenodd" clip-rule="evenodd" d="M221.641 22.9021V36.7821H223.521V30.4621H230.601V36.7821H232.481V22.9021H230.601V28.7421H223.521V22.9021H221.641ZM240.022 22.9021L234.342 36.7821H236.342L237.599 33.6421H243.756L245.002 36.7821H247.042L241.382 22.9021H240.022ZM243.105 32.0021L240.691 25.9201L238.256 32.0021H243.105ZM250.612 30.7421V36.7821H248.732V22.9021H249.992H250.612H253.832C254.712 22.9021 255.478 23.0754 256.132 23.4221C256.785 23.7554 257.285 24.2154 257.632 24.8021C257.992 25.3888 258.172 26.0621 258.172 26.8221C258.172 27.6088 257.992 28.2954 257.632 28.8821C257.285 29.4688 256.785 29.9288 256.132 30.2621C255.552 30.5459 254.884 30.7038 254.126 30.7359L259.112 36.7821H256.732L251.838 30.7421H250.612ZM250.612 29.1621H253.752C254.565 29.1621 255.192 28.9554 255.632 28.5421C256.072 28.1288 256.292 27.5688 256.292 26.8621C256.292 26.1954 256.072 25.6421 255.632 25.2021C255.205 24.7621 254.585 24.5421 253.772 24.5421H250.612V29.1621ZM227.101 55.8198H223.521V50.9798H227.161C227.668 50.9798 228.108 51.0865 228.481 51.2998C228.868 51.5132 229.161 51.8065 229.361 52.1798C229.561 52.5398 229.661 52.9465 229.661 53.3998C229.661 54.0665 229.434 54.6398 228.981 55.1198C228.528 55.5865 227.901 55.8198 227.101 55.8198ZM223.521 49.3398H226.881C227.548 49.3398 228.074 49.1665 228.461 48.8198C228.861 48.4598 229.061 47.9465 229.061 47.2798C229.061 46.6132 228.854 46.1065 228.441 45.7598C228.028 45.3998 227.481 45.2198 226.801 45.2198H223.521V49.3398ZM223.521 43.5798H226.841C227.748 43.5798 228.501 43.7465 229.101 44.0798C229.714 44.3998 230.174 44.8265 230.481 45.3598C230.801 45.8932 230.961 46.4798 230.961 47.1198C230.961 47.8665 230.754 48.5198 230.341 49.0798C230.075 49.4522 229.724 49.7715 229.287 50.0377C229.913 50.3443 230.417 50.7516 230.801 51.2598C231.308 51.8998 231.561 52.6598 231.561 53.5398C231.561 54.2732 231.381 54.9332 231.021 55.5198C230.661 56.1065 230.141 56.5798 229.461 56.9398C228.794 57.2865 227.974 57.4598 227.001 57.4598H223.521H222.901H221.641V43.5798H222.901H223.521ZM237.262 57.1198C238.115 57.4798 239.035 57.6598 240.022 57.6598C240.995 57.6598 241.902 57.4798 242.742 57.1198C243.595 56.7465 244.335 56.2332 244.962 55.5798C245.602 54.9265 246.102 54.1665 246.462 53.2998C246.822 52.4332 247.002 51.5065 247.002 50.5198C247.002 49.5198 246.822 48.5865 246.462 47.7198C246.102 46.8532 245.602 46.0932 244.962 45.4398C244.322 44.7865 243.575 44.2798 242.722 43.9198C241.882 43.5598 240.969 43.3798 239.982 43.3798C238.995 43.3798 238.075 43.5598 237.222 43.9198C236.382 44.2798 235.642 44.7865 235.002 45.4398C234.375 46.0932 233.882 46.8532 233.522 47.7198C233.175 48.5732 233.002 49.4998 233.002 50.4998C233.002 51.4865 233.175 52.4132 233.522 53.2798C233.882 54.1465 234.382 54.9132 235.022 55.5798C235.662 56.2332 236.409 56.7465 237.262 57.1198ZM242.602 55.1798C241.855 55.6332 240.982 55.8598 239.982 55.8598C239.249 55.8598 238.569 55.7265 237.942 55.4598C237.329 55.1932 236.795 54.8265 236.342 54.3598C235.902 53.8798 235.555 53.3132 235.302 52.6598C235.062 51.9932 234.942 51.2732 234.942 50.4998C234.942 49.4598 235.155 48.5398 235.582 47.7398C236.022 46.9398 236.615 46.3132 237.362 45.8598C238.122 45.4065 238.995 45.1798 239.982 45.1798C240.729 45.1798 241.409 45.3132 242.022 45.5798C242.635 45.8332 243.169 46.1998 243.622 46.6798C244.075 47.1598 244.429 47.7265 244.682 48.3798C244.935 49.0198 245.062 49.7265 245.062 50.4998C245.062 51.5398 244.842 52.4665 244.402 53.2798C243.962 54.0798 243.362 54.7132 242.602 55.1798ZM251.061 51.4198V57.4598H249.181V43.5798H250.441H251.061H254.281C255.161 43.5798 255.928 43.7532 256.581 44.0998C257.234 44.4332 257.734 44.8932 258.081 45.4798C258.441 46.0665 258.621 46.7398 258.621 47.4998C258.621 48.2865 258.441 48.9732 258.081 49.5598C257.734 50.1465 257.234 50.6065 256.581 50.9398C256.002 51.2236 255.333 51.3815 254.576 51.4137L259.561 57.4598H257.181L252.287 51.4198H251.061ZM251.061 49.8398H254.201C255.014 49.8398 255.641 49.6332 256.081 49.2198C256.521 48.8065 256.741 48.2465 256.741 47.5398C256.741 46.8732 256.521 46.3198 256.081 45.8798C255.654 45.4398 255.034 45.2198 254.221 45.2198H251.061V49.8398Z" fill="#FDB235"/>
<defs>
<clipPath id="clip0_1648_2613">
<rect width="43.1698" height="43.1698" fill="white" transform="translate(4.42188 12.1697)"/>
</clipPath>
</defs>
</svg>
